<?xml version="1.0" encoding="UTF-8"?>
<svg id="uuid-6cda1c4e-130b-43f8-a5ed-eaaa0ded4ff5" data-name="Layer 1" xmlns="http://www.w3.org/2000/svg" viewBox="0 0 200 200">
  <defs>
    <style>
      .uuid-8bbb74c7-71ae-4aa7-8384-73a52f1c0dc5 {
        font-family: Poppins-Bold, Poppins;
        font-size: 21.04px;
        font-weight: 700;
      }

      .uuid-8bbb74c7-71ae-4aa7-8384-73a52f1c0dc5, .uuid-93df08e1-10df-48fb-8384-db9628d912a4, .uuid-ffa8f9a5-8869-451b-9b2d-9a3856b78256 {
        fill: #262528;
      }

      .uuid-93df08e1-10df-48fb-8384-db9628d912a4 {
        font-family: FiraSans-Light, 'Fira Sans';
        font-size: 6.51px;
        font-weight: 300;
      }

      .uuid-fd8fafea-c5d2-4392-b12b-13722cf55ac9 {
        letter-spacing: -.03em;
      }

      .uuid-bb2d8245-96e6-48d5-a889-ff40266a3fbb {
        fill: #dc9c2a;
      }

      .uuid-f8ed2c55-3cfb-4423-9ef0-49e018f3a62c {
        letter-spacing: -.01em;
      }

      .uuid-16fed10f-fcb7-483e-a6dd-5b10c17a0d3c {
        letter-spacing: 0em;
      }

      .uuid-44295178-d0f0-4db0-8db5-824570470dfa {
        letter-spacing: 0em;
      }

      .uuid-82e0d301-8bb8-4b14-be80-ad46c303585c {
        letter-spacing: -.02em;
      }
    </style>
  </defs>
  <g>
    <path class="uuid-bb2d8245-96e6-48d5-a889-ff40266a3fbb" d="M60.08,101.83v-13.66s-23.66-13.66-23.66-13.66l-23.66,13.66v13.66c0,8.45,4.51,16.27,11.83,20.49h0c7.32,4.23,16.34,4.23,23.66,0h0c7.32-4.23,11.83-12.04,11.83-20.49Z"/>
    <g>
      <path class="uuid-ffa8f9a5-8869-451b-9b2d-9a3856b78256" d="M32.15,103.18c0-2.85,1.04-5.6,2.93-7.74,1.4-1.58,3.18-2.74,5.14-3.39-.67,2.68-2.07,5.15-4.08,7.15-.69,.68-1.38,1.4-2.06,2.13-.65,.7-1.29,1.42-1.93,2.16v-.32Z"/>
      <path class="uuid-ffa8f9a5-8869-451b-9b2d-9a3856b78256" d="M51.32,87.49c-2.31,0-4.59,.51-6.67,1.48,0-.23,.01-.46,.01-.68v-.8h-.8c-4.21,0-8.23,1.69-11.17,4.68-2.93-2.98-6.96-4.68-11.17-4.68h-.8v16.61c0,4.77,2.13,9.23,5.85,12.22l.69,.56h0c.22,.15,3.78,2.55,9.05,2.55,2.71,0,5.85-.65,9.23-2.55l.69-.56c3.72-3,5.86-7.45,5.86-12.22v-16.61h-.8Zm-8.26,1.62c-.2,4.46-2.04,8.62-5.23,11.79-.67,.66-1.33,1.35-1.99,2.06-.27,.29-.54,.59-.81,.88-.22,.25-.44,.49-.66,.74-.18,.2-.35,.4-.52,.6-.15,.17-.3,.35-.44,.52-.05,.06-.11,.12-.16,.19-.17,.2-.34,.4-.5,.61-.22,.26-.44,.53-.65,.8-.54,.67-1.07,1.36-1.59,2.06-.19,.25-.39,.51-.57,.77-.05,.07-.11,.14-.16,.21v-7.17c0-3.43,1.25-6.75,3.52-9.32,2.5-2.83,6.02-4.54,9.76-4.76Zm-16.15,25.4c-2.93-2.67-4.58-6.41-4.58-10.41v-15c3.53,.2,6.86,1.72,9.31,4.26-2.23,2.78-3.46,6.24-3.46,9.82v9.42c-.44,.63-.86,1.27-1.27,1.9Zm1.24,1.01c.36-.55,.72-1.1,1.1-1.66,.12-.18,.25-.37,.38-.55,.23-.34,.46-.67,.7-1,.24-.34,.48-.68,.73-1.01,.11-.16,.23-.31,.34-.46,.25-.34,.51-.68,.77-1.02,.25-.33,.51-.67,.77-.99,1.14-1.45,2.3-2.83,3.48-4.13,2.37,2.62,4.65,5.51,6.8,8.62,.52,.75,1.02,1.5,1.51,2.25-8.92,4.96-16.09,.29-16.57-.04Zm22.38-11.42c0,3.99-1.66,7.74-4.59,10.41-.46-.7-.93-1.41-1.41-2.11-2.21-3.21-4.57-6.2-7.02-8.89,.48-.51,.96-1,1.44-1.48,3.08-3.06,5-6.96,5.55-11.19,1.85-1.02,3.9-1.61,6.02-1.73v15Z"/>
    </g>
  </g>
  <g>
    <text class="uuid-8bbb74c7-71ae-4aa7-8384-73a52f1c0dc5" transform="translate(67.64 105.65)"><tspan x="0" y="0">RENT HIVES</tspan></text>
    <text class="uuid-93df08e1-10df-48fb-8384-db9628d912a4" transform="translate(67.09 114.39)"><tspan x="0" y="0">PERF</tspan><tspan class="uuid-f8ed2c55-3cfb-4423-9ef0-49e018f3a62c" x="14.02" y="0">E</tspan><tspan class="uuid-16fed10f-fcb7-483e-a6dd-5b10c17a0d3c" x="17.28" y="0">C</tspan><tspan x="20.8" y="0">T OUTFIT IS </tspan><tspan class="uuid-fd8fafea-c5d2-4392-b12b-13722cf55ac9" x="54.98" y="0">Y</tspan><tspan class="uuid-44295178-d0f0-4db0-8db5-824570470dfa" x="58.2" y="0">OUR PERF</tspan><tspan class="uuid-f8ed2c55-3cfb-4423-9ef0-49e018f3a62c" x="86.63" y="0">E</tspan><tspan class="uuid-16fed10f-fcb7-483e-a6dd-5b10c17a0d3c" x="89.89" y="0">C</tspan><tspan class="uuid-44295178-d0f0-4db0-8db5-824570470dfa" x="93.41" y="0">T F</tspan><tspan class="uuid-16fed10f-fcb7-483e-a6dd-5b10c17a0d3c" x="101.58" y="0">E</tspan><tspan class="uuid-82e0d301-8bb8-4b14-be80-ad46c303585c" x="104.85" y="0">S</tspan><tspan x="108.2" y="0">TIVE</tspan></text>
  </g>
</svg>